<svg id="Capa_1" data-name="Capa 1" xmlns="http://www.w3.org/2000/svg" viewBox="0 0 79.71 44.3"><defs><style>.cls-1{fill:#fff;}</style></defs><path class="cls-1" d="M16.37,74.16H12.05a.31.31,0,0,1-.33-.28V36.76a.31.31,0,0,1,.33-.27h4.32a.31.31,0,0,1,.33.27V73.88A.31.31,0,0,1,16.37,74.16Zm-4-.56H16V37H12.38Z" transform="translate(-10.15 -29.86)"/><path class="cls-1" d="M57.7,69.75H16.37a.31.31,0,0,1-.33-.28V67.64a.31.31,0,0,1,.33-.27H57.7a.31.31,0,0,1,.33.27v1.83A.31.31,0,0,1,57.7,69.75Zm-41-.56H57.37V67.92H16.7Z" transform="translate(-10.15 -29.86)"/><path class="cls-1" d="M87.48,74.16H57.7a.31.31,0,0,1-.33-.28V36.76a.31.31,0,0,1,.33-.27H87.48a.31.31,0,0,1,.33.27V73.88A.31.31,0,0,1,87.48,74.16ZM58,73.6H87.15V37H58Z" transform="translate(-10.15 -29.86)"/><path class="cls-1" d="M83.9,71.38H61.28A.31.31,0,0,1,61,71.1V39.55a.31.31,0,0,1,.33-.28H83.9a.31.31,0,0,1,.33.28V71.1A.31.31,0,0,1,83.9,71.38Zm-22.29-.56h22v-31h-22Z" transform="translate(-10.15 -29.86)"/><path class="cls-1" d="M89.52,37h-79a.3.3,0,0,1-.33-.28V30.14a.3.3,0,0,1,.33-.28h79a.3.3,0,0,1,.33.28v6.62A.3.3,0,0,1,89.52,37Zm-78.71-.55H89.19V30.42H10.81Z" transform="translate(-10.15 -29.86)"/><path class="cls-1" d="M83.9,48.48H61.28A.31.31,0,0,1,61,48.2a.31.31,0,0,1,.33-.28H83.9a.31.31,0,0,1,.33.28A.31.31,0,0,1,83.9,48.48Z" transform="translate(-10.15 -29.86)"/><path class="cls-1" d="M75.4,42.8H69.78a.3.3,0,0,1-.33-.28V41a.3.3,0,0,1,.33-.28H75.4a.31.31,0,0,1,.34.28v1.48A.31.31,0,0,1,75.4,42.8Zm-5.29-.56h5v-.93h-5Z" transform="translate(-10.15 -29.86)"/><path class="cls-1" d="M65.31,56.71H63.54a.31.31,0,0,1-.33-.28V51.69a.31.31,0,0,1,.33-.28h1.77a.31.31,0,0,1,.33.28v4.74A.31.31,0,0,1,65.31,56.71Zm-1.44-.56H65V52H63.87Z" transform="translate(-10.15 -29.86)"/></svg>