<svg id="Capa_1" data-name="Capa 1" xmlns="http://www.w3.org/2000/svg" viewBox="0 0 75.91 56.52"><defs><style>.cls-1{fill:#fff;}</style></defs><path class="cls-1" d="M88.41,78.05H80.52a.36.36,0,0,1-.38-.34V74.62H21.52v3.09a.36.36,0,0,1-.38.34H13.25a.36.36,0,0,1-.38-.34V57.35a.36.36,0,0,1,.38-.34H88.41a.36.36,0,0,1,.38.34V77.71A.36.36,0,0,1,88.41,78.05Zm-7.52-.69H88V57.7H13.62V77.36h7.14V74.28a.37.37,0,0,1,.38-.35H80.52a.36.36,0,0,1,.37.35Z" transform="translate(-12.87 -21.53)"/><path class="cls-1" d="M88.41,57.7H13.25a.38.38,0,0,1-.34-.2.34.34,0,0,1,.05-.37l16.37-18a.38.38,0,0,1,.29-.12H40.55a.34.34,0,1,1,0,.68H29.8L14.05,57H87.61L71.86,39.74H61.11a.34.34,0,1,1,0-.68H72a.4.4,0,0,1,.29.12l16.37,18a.34.34,0,0,1,0,.37A.38.38,0,0,1,88.41,57.7Z" transform="translate(-12.87 -21.53)"/><path class="cls-1" d="M72,39.74H61.11a.34.34,0,1,1,0-.68H71.66V28H64.43a.37.37,0,0,1-.33-.18c-1.88-3.33-7.21-5.56-13.27-5.56s-11.39,2.23-13.27,5.56a.37.37,0,0,1-.33.18H30v11.1H40.55a.34.34,0,1,1,0,.68H29.62a.35.35,0,0,1-.37-.34V27.62a.35.35,0,0,1,.37-.34H37c2.09-3.45,7.61-5.75,13.83-5.75s11.74,2.3,13.83,5.75H72a.35.35,0,0,1,.37.34V39.4A.35.35,0,0,1,72,39.74Z" transform="translate(-12.87 -21.53)"/><path class="cls-1" d="M88.41,67.87H13.25a.34.34,0,1,1,0-.68H88.41a.34.34,0,1,1,0,.68Z" transform="translate(-12.87 -21.53)"/><path class="cls-1" d="M58.82,42.49h-16a2.42,2.42,0,0,1-2.66-2.06v-7a2.42,2.42,0,0,1,2.66-2.05h16a2.42,2.42,0,0,1,2.66,2.05v7A2.42,2.42,0,0,1,58.82,42.49Zm-16-10.41c-1.06,0-1.91.62-1.91,1.37v7c0,.76.85,1.37,1.91,1.37h16c1,0,1.91-.61,1.91-1.37v-7c0-.75-.86-1.37-1.91-1.37Z" transform="translate(-12.87 -21.53)"/></svg>