<svg id="Capa_1" data-name="Capa 1" xmlns="http://www.w3.org/2000/svg" viewBox="0 0 79.64 50.79"><defs><style>.cls-1{fill:#fff;}</style></defs><path class="cls-1" d="M22.39,75.54H10.48a.33.33,0,0,1-.34-.32V46.81a3.75,3.75,0,0,1,3.8-3.67h5a3.74,3.74,0,0,1,3.79,3.67V75.22A.32.32,0,0,1,22.39,75.54Zm-11.58-.65H22.05V46.81a3.08,3.08,0,0,0-3.12-3h-5a3.09,3.09,0,0,0-3.13,3Z" transform="translate(-10.14 -24.75)"/><path class="cls-1" d="M83.28,43.79a.33.33,0,0,1-.34-.32v-7.3A11,11,0,0,0,71.82,25.4H27.89A11,11,0,0,0,16.77,36.17v7.3a.34.34,0,0,1-.67,0v-7.3A11.62,11.62,0,0,1,27.89,24.75H71.82A11.62,11.62,0,0,1,83.61,36.17v7.3A.33.33,0,0,1,83.28,43.79Z" transform="translate(-10.14 -24.75)"/><path class="cls-1" d="M89.45,75.54H77.55a.33.33,0,0,1-.34-.32V46.81A3.74,3.74,0,0,1,81,43.14h5a3.74,3.74,0,0,1,3.79,3.67V75.22A.33.33,0,0,1,89.45,75.54Zm-11.57-.65H89.12V46.81a3.08,3.08,0,0,0-3.12-3H81a3.08,3.08,0,0,0-3.12,3Z" transform="translate(-10.14 -24.75)"/><path class="cls-1" d="M50,75.54H22.39a.33.33,0,0,1-.34-.32V59.36c0-2.24,2.68-4.06,6-4.06h16.3c3.29,0,6,1.82,6,4.06V75.22A.32.32,0,0,1,50,75.54Zm-27.25-.65H49.63V59.36c0-1.88-2.38-3.42-5.3-3.42H28c-2.93,0-5.31,1.54-5.31,3.42Z" transform="translate(-10.14 -24.75)"/><path class="cls-1" d="M50,65.74H22.39a.33.33,0,0,1-.34-.32.34.34,0,0,1,.34-.33H50a.33.33,0,0,1,.33.33A.32.32,0,0,1,50,65.74Z" transform="translate(-10.14 -24.75)"/><path class="cls-1" d="M77.55,75.54H50a.33.33,0,0,1-.34-.32V59.36c0-2.24,2.68-4.06,6-4.06h16.3c3.29,0,6,1.82,6,4.06V75.22A.32.32,0,0,1,77.55,75.54ZM50.3,74.89H77.21V59.36c0-1.88-2.38-3.42-5.3-3.42H55.61c-2.93,0-5.31,1.54-5.31,3.42Z" transform="translate(-10.14 -24.75)"/><path class="cls-1" d="M77.55,65.74H50a.33.33,0,0,1-.34-.32.34.34,0,0,1,.34-.33H77.55a.33.33,0,0,1,.33.33A.32.32,0,0,1,77.55,65.74Z" transform="translate(-10.14 -24.75)"/><path class="cls-1" d="M44.61,37.5A1.33,1.33,0,1,1,46,36.17,1.35,1.35,0,0,1,44.61,37.5Zm0-2a.68.68,0,1,0,.7.68A.69.69,0,0,0,44.61,35.49Z" transform="translate(-10.14 -24.75)"/><path class="cls-1" d="M36.18,37.5a1.33,1.33,0,1,1,1.37-1.33A1.36,1.36,0,0,1,36.18,37.5Zm0-2a.68.68,0,1,0,0,1.36.68.68,0,1,0,0-1.36Z" transform="translate(-10.14 -24.75)"/><path class="cls-1" d="M27.74,37.5a1.33,1.33,0,1,1,1.38-1.33A1.36,1.36,0,0,1,27.74,37.5Zm0-2a.68.68,0,1,0,.71.68A.7.7,0,0,0,27.74,35.49Z" transform="translate(-10.14 -24.75)"/><path class="cls-1" d="M44.61,45A1.33,1.33,0,1,1,46,43.65,1.35,1.35,0,0,1,44.61,45Zm0-2a.68.68,0,1,0,.7.68A.69.69,0,0,0,44.61,43Z" transform="translate(-10.14 -24.75)"/><path class="cls-1" d="M36.18,45a1.33,1.33,0,1,1,1.37-1.33A1.36,1.36,0,0,1,36.18,45Zm0-2a.68.68,0,1,0,.7.68A.69.69,0,0,0,36.18,43Z" transform="translate(-10.14 -24.75)"/><path class="cls-1" d="M27.74,45a1.33,1.33,0,1,1,1.38-1.33A1.36,1.36,0,0,1,27.74,45Zm0-2a.68.68,0,1,0,0,1.36.68.68,0,1,0,0-1.36Z" transform="translate(-10.14 -24.75)"/><path class="cls-1" d="M44.61,52.46A1.33,1.33,0,1,1,46,51.13,1.35,1.35,0,0,1,44.61,52.46Zm0-2a.68.68,0,1,0,.7.68A.69.69,0,0,0,44.61,50.45Z" transform="translate(-10.14 -24.75)"/><path class="cls-1" d="M36.18,52.46a1.33,1.33,0,1,1,1.37-1.33A1.36,1.36,0,0,1,36.18,52.46Zm0-2a.68.68,0,1,0,.7.68A.69.69,0,0,0,36.18,50.45Z" transform="translate(-10.14 -24.75)"/><path class="cls-1" d="M27.74,52.46a1.33,1.33,0,1,1,1.38-1.33A1.36,1.36,0,0,1,27.74,52.46Zm0-2a.68.68,0,1,0,0,1.36.68.68,0,1,0,0-1.36Z" transform="translate(-10.14 -24.75)"/><path class="cls-1" d="M72.19,37.5a1.33,1.33,0,1,1,1.37-1.33A1.35,1.35,0,0,1,72.19,37.5Zm0-2a.68.68,0,1,0,.7.68A.69.69,0,0,0,72.19,35.49Z" transform="translate(-10.14 -24.75)"/><path class="cls-1" d="M63.76,37.5a1.33,1.33,0,1,1,1.37-1.33A1.36,1.36,0,0,1,63.76,37.5Zm0-2a.68.68,0,1,0,0,1.36.68.68,0,1,0,0-1.36Z" transform="translate(-10.14 -24.75)"/><path class="cls-1" d="M55.32,37.5a1.33,1.33,0,1,1,1.37-1.33A1.36,1.36,0,0,1,55.32,37.5Zm0-2a.68.68,0,1,0,0,1.36.68.68,0,1,0,0-1.36Z" transform="translate(-10.14 -24.75)"/><path class="cls-1" d="M72.19,45a1.33,1.33,0,1,1,1.37-1.33A1.35,1.35,0,0,1,72.19,45Zm0-2a.68.68,0,1,0,.7.68A.69.69,0,0,0,72.19,43Z" transform="translate(-10.14 -24.75)"/><path class="cls-1" d="M63.76,45a1.33,1.33,0,1,1,1.37-1.33A1.36,1.36,0,0,1,63.76,45Zm0-2a.68.68,0,1,0,.7.68A.69.69,0,0,0,63.76,43Z" transform="translate(-10.14 -24.75)"/><path class="cls-1" d="M55.32,45a1.33,1.33,0,1,1,1.37-1.33A1.36,1.36,0,0,1,55.32,45Zm0-2a.68.68,0,1,0,.7.68A.69.69,0,0,0,55.32,43Z" transform="translate(-10.14 -24.75)"/><path class="cls-1" d="M72.19,52.46a1.33,1.33,0,1,1,1.37-1.33A1.35,1.35,0,0,1,72.19,52.46Zm0-2a.68.68,0,1,0,.7.68A.69.69,0,0,0,72.19,50.45Z" transform="translate(-10.14 -24.75)"/><path class="cls-1" d="M63.76,52.46a1.33,1.33,0,1,1,1.37-1.33A1.36,1.36,0,0,1,63.76,52.46Zm0-2a.68.68,0,1,0,.7.68A.69.69,0,0,0,63.76,50.45Z" transform="translate(-10.14 -24.75)"/><path class="cls-1" d="M55.32,52.46a1.33,1.33,0,1,1,1.37-1.33A1.36,1.36,0,0,1,55.32,52.46Zm0-2a.68.68,0,1,0,.7.68A.69.69,0,0,0,55.32,50.45Z" transform="translate(-10.14 -24.75)"/></svg>