<svg id="Capa_1" data-name="Capa 1" xmlns="http://www.w3.org/2000/svg" viewBox="0 0 63.51 106.55"><defs><style>.cls-1{fill:#fff;}</style></defs><path class="cls-1" d="M104.67,92.29H45.33a2.12,2.12,0,0,1-2.08-2.16V75.54a2.12,2.12,0,0,1,2.08-2.16h59.34a2.12,2.12,0,0,1,2.08,2.16V90.13A2.12,2.12,0,0,1,104.67,92.29ZM47.41,88h55.18V77.7H47.41Z" transform="translate(-43.25 -16.63)"/><path class="cls-1" d="M100.13,77.7H49.87a2.12,2.12,0,0,1-2.08-2.16V18.79a2.12,2.12,0,0,1,2.08-2.16h50.26a2.12,2.12,0,0,1,2.08,2.16V75.54A2.12,2.12,0,0,1,100.13,77.7ZM52,73.38H98V21H52Z" transform="translate(-43.25 -16.63)"/><path class="cls-1" d="M57.65,123.18h-5a2.11,2.11,0,0,1-2.08-2L48.63,90.27a2.16,2.16,0,0,1,.56-1.61A2,2,0,0,1,50.7,88h8.88a2,2,0,0,1,1.52.69,2.16,2.16,0,0,1,.56,1.61l-1.94,30.89A2.11,2.11,0,0,1,57.65,123.18Zm-3.06-4.32h1.1l1.67-26.57H52.93Z" transform="translate(-43.25 -16.63)"/><path class="cls-1" d="M97.36,123.18h-5a2.11,2.11,0,0,1-2.07-2L88.34,90.27a2.16,2.16,0,0,1,.56-1.61A2,2,0,0,1,90.42,88H99.3a2,2,0,0,1,1.51.69,2.16,2.16,0,0,1,.56,1.61l-1.93,30.89A2.11,2.11,0,0,1,97.36,123.18Zm-3-4.32h1.1l1.66-26.57H92.64Z" transform="translate(-43.25 -16.63)"/><path class="cls-1" d="M100.13,44.53H49.87a2.12,2.12,0,0,1-2.08-2.16V32a2.12,2.12,0,0,1,2.08-2.16h50.26A2.12,2.12,0,0,1,102.21,32v10.4A2.12,2.12,0,0,1,100.13,44.53ZM52,40.21H98V34.13H52Z" transform="translate(-43.25 -16.63)"/></svg>