<svg id="Capa_1" data-name="Capa 1" xmlns="http://www.w3.org/2000/svg" viewBox="0 0 402.89 337.87"><defs><style>.cls-1{fill:#fff;}</style></defs><g id="layer1"><path id="rect2391" class="cls-1" d="M442.89,216.75Zm0,0-141.41-111L160,216.8V375.49c0,4.09,3.74,7.38,8.36,7.38h88.42V313.3c0-4.1,3.71-7.41,8.34-7.41h72.65c4.63,0,8.33,3.31,8.33,7.41v69.57h88.45c4.63,0,8.34-3.29,8.34-7.38ZM160,216.8Z" transform="translate(-100 -45)"/><path id="path2399" class="cls-1" d="M300.66,45,100,202.5l21.14,21.14L301.49,82.07l180.3,141.57,21.1-21.14L302.27,45l-.78.8Z" transform="translate(-100 -45)"/><path id="rect2404" class="cls-1" d="M160,67.67h50.87l-.44,26.71L160,134.76Z" transform="translate(-100 -45)"/></g></svg>